<?xml version="1.0" ?><svg enable-background="new 0 0 24 24" id="Layer_1" version="1.1" viewBox="0 0 24 24" xml:space="preserve" xmlns="http://www.w3.org/2000/svg" xmlns:xlink="http://www.w3.org/1999/xlink"><g><path d="M12,0C5.3833008,0,0,5.3833008,0,12s5.3833008,12,12,12s12-5.3833008,12-12S18.6166992,0,12,0z" fill="#303C42"/><path d="M13.5986328,19.8769531l0.293457,0.8803711C13.5922852,20.8652344,13.0136719,21,12,21   c-1.0200195,0-1.5991211-0.1367188-1.8930664-0.2402344l0.2944336-0.8828125   c0.043457-0.1308594,0.0307617-0.2739258-0.0341797-0.3950195c-0.0654297-0.121582-0.1782227-0.2104492-0.3110352-0.2460938   c-1.1743164-0.3144531-2.2680664-0.9208984-3.1621094-1.7539062c-0.1005859-0.09375-0.2324219-0.140625-0.3735352-0.1333008   c-0.137207,0.0092773-0.2651367,0.0742188-0.3525391,0.1806641l-0.5917969,0.7163086   c-0.2504883-0.1977539-0.6713867-0.6166992-1.2089844-1.4760742c-0.5400391-0.8652344-0.730957-1.4291992-0.7988281-1.7329102   l0.8969727-0.2167969c0.1337891-0.0322266,0.2485352-0.1181641,0.3168945-0.237793s0.0844727-0.262207,0.0439453-0.394043   C4.6098633,13.4780273,4.5,12.7416992,4.5,12c0-0.5473633,0.065918-1.1132812,0.1962891-1.6821289   c0.0307617-0.1342773,0.0048828-0.2753906-0.0717773-0.3896484c-0.0761719-0.1142578-0.1967773-0.1923828-0.3325195-0.215332   L3.3793945,9.559082C3.425293,9.2436523,3.5771484,8.6694336,4.0532227,7.7749023   c0.4790039-0.9008789,0.871582-1.3481445,1.1005859-1.5585938l0.6420898,0.6748047   c0.0942383,0.0991211,0.2255859,0.1552734,0.3623047,0.1552734c0.0004883,0,0.0014648,0,0.0024414,0   c0.1376953-0.0004883,0.269043-0.0581055,0.362793-0.1586914c0.9599609-1.0273438,2.1811523-1.7612305,3.5327148-2.1235352   c0.1333008-0.0356445,0.2456055-0.1245117,0.3110352-0.2460938c0.0649414-0.1210938,0.0776367-0.2641602,0.0341797-0.3950195   l-0.293457-0.8803711C10.4077148,3.1347656,10.9863281,3,12,3c1.0200195,0,1.5991211,0.1367188,1.8930664,0.2402344   l-0.2944336,0.8828125c-0.043457,0.1308594-0.0307617,0.2739258,0.0341797,0.3950195   c0.0654297,0.121582,0.1782227,0.2104492,0.3110352,0.2460938c1.1743164,0.3144531,2.2680664,0.9208984,3.1621094,1.7539062   c0.1005859,0.0942383,0.2324219,0.140625,0.3735352,0.1333008c0.137207-0.0092773,0.2651367-0.0742188,0.3525391-0.1806641   l0.5917969-0.7163086c0.2504883,0.1977539,0.6713867,0.6166992,1.2089844,1.4760742   c0.5400391,0.8652344,0.730957,1.4287109,0.7988281,1.7329102l-0.8974609,0.2167969   c-0.1337891,0.0322266-0.2480469,0.1181641-0.3164062,0.237793s-0.0844727,0.262207-0.0439453,0.394043   C19.3901367,10.5219727,19.5,11.2583008,19.5,12c0,0.5473633-0.065918,1.1132812-0.1962891,1.6821289   c-0.0307617,0.1342773-0.0048828,0.2753906,0.0717773,0.3896484c0.0761719,0.1142578,0.1967773,0.1923828,0.3325195,0.215332   l0.9125977,0.1538086c-0.0458984,0.3154297-0.1977539,0.8891602-0.6738281,1.7841797   c-0.4790039,0.9003906-0.871582,1.3481445-1.1010742,1.5585938l-0.6416016-0.6748047   c-0.0947266-0.0996094-0.1928711-0.1479492-0.3647461-0.1552734c-0.1376953,0.0004883-0.269043,0.0581055-0.362793,0.1586914   c-0.9599609,1.0273438-2.1811523,1.7612305-3.5327148,2.1235352c-0.1333008,0.0356445-0.2456055,0.1245117-0.3110352,0.2460938   C13.5678711,19.6030273,13.5551758,19.7460938,13.5986328,19.8769531z" fill="#596368"/><path d="M21.5981445,13.871582c-0.0551758-0.1806641-0.2080078-0.3149414-0.3950195-0.3466797l-0.8217773-0.1386719   C20.4604492,12.9189453,20.5,12.4545898,20.5,12c0-0.6640625-0.0776367-1.3237305-0.2314453-1.96875l0.8061523-0.1948242   c0.1835938-0.0444336,0.3266602-0.1889648,0.3696289-0.3730469c0.031311-0.1364136,0.1188965-0.8555298-0.7200317-2.3428345   l0.8278809-0.553894C22.468689,8.1714478,23,10.0233154,23,12c0,1.7168579-0.4066162,3.3366699-1.111084,4.7860718   l-0.850708-0.5162354C21.7771606,14.7202148,21.6394043,14.0056152,21.5981445,13.871582z" fill="#D75532"/><path d="M21.0189819,5.7205811l-0.8255005,0.5523071c-0.9602661-1.3847046-1.6378784-1.6182861-1.7730713-1.6498413   c-0.184082-0.0415039-0.3769531,0.0224609-0.4980469,0.1689453L17.3886719,5.4375   c-0.7954102-0.652832-1.7070312-1.1582031-2.6787109-1.4858398l0.2646484-0.793457   c0.0595703-0.1796875,0.0126953-0.3779297-0.1210938-0.5117188C14.7549438,2.5479126,14.194519,2.0948486,12.5,2.0161743V1.0253296   C16.0237427,1.1848755,19.1191406,3.0002441,21.0189819,5.7205811z" fill="#D75532"/><path d="M11.5,1.0253296v0.9908447C9.805481,2.0948486,9.2450562,2.5479126,9.1464844,2.6464844   C9.0126953,2.7802734,8.9658203,2.9785156,9.0253906,3.1582031l0.2646484,0.793457   c-1.1640625,0.3911133-2.2285156,1.03125-3.1240234,1.8779297L5.5893555,5.2226562   c-0.1308594-0.137207-0.3300781-0.1894531-0.5083008-0.1333008C4.947998,5.1298218,4.2874756,5.4102173,3.4251709,6.8613281   L2.5635986,6.3762207C4.4052124,3.2980957,7.701355,1.1973267,11.5,1.0253296z" fill="#D75532"/><path d="M2.0903931,7.256897l0.8646851,0.4868774C2.2233887,9.2841187,2.3607178,9.994751,2.4018555,10.128418   c0.0551758,0.1806641,0.2080078,0.3149414,0.3950195,0.3466797l0.8217773,0.1386719C3.5395508,11.0810547,3.5,11.5454102,3.5,12   c0,0.6635742,0.0776367,1.3237305,0.230957,1.96875l-0.8051758,0.1943359   c-0.184082,0.0444336-0.3271484,0.1889648-0.3701172,0.3730469c-0.031311,0.1364136-0.1188354,0.855896,0.7200928,2.3433228   l-0.8279419,0.553894C1.531311,15.8285522,1,13.9766846,1,12C1,10.3000488,1.3989258,8.6954346,2.0903931,7.256897z" fill="#D75532"/><path d="M2.9810181,18.2794189l0.8255005-0.5523071c0.9602661,1.3847046,1.6378784,1.6182861,1.7730713,1.6498413   c0.1850586,0.0400391,0.3769531-0.0224609,0.4980469-0.1689453L6.6113281,18.5625   c0.7954102,0.652832,1.7070312,1.1582031,2.6787109,1.4858398l-0.2646484,0.793457   c-0.0595703,0.1796875-0.0126953,0.3779297,0.1210938,0.5117188C9.2450562,21.4520874,9.805481,21.9051514,11.5,21.9838257   v0.9908447C7.9762573,22.8151245,4.8808594,20.9997559,2.9810181,18.2794189z" fill="#D75532"/><path d="M12.5,22.9746704v-0.9908447c1.694519-0.0786743,2.2549438-0.5317383,2.3535156-0.6303101   c0.1337891-0.1337891,0.1806641-0.3320312,0.1210938-0.5117188l-0.2646484-0.793457   c1.1640625-0.3911133,2.2285156-1.03125,3.1240234-1.8779297l0.5766602,0.6069336   c0.1303711,0.1367188,0.3261719,0.1870117,0.5087891,0.1333008c0.1326294-0.0403442,0.7890015-0.3189697,1.6472168-1.7578125   l0.8444824,0.5124512C19.5646973,20.7207031,16.2814941,22.8034668,12.5,22.9746704z" fill="#D75532"/><path d="M13.9941406,18.4238281l-0.4248047-2.7602539c0.2954102-0.1245117,0.5698242-0.28125,0.8222656-0.4692383   l2.1743164,1.7446289c0.1137695,0.0917969,0.2617188,0.1293945,0.4052734,0.1010742   c0.1430664-0.0268555,0.2675781-0.1147461,0.3408203-0.2412109l1.5-2.5976562   c0.0727539-0.1264648,0.0869141-0.2783203,0.0385742-0.4160156c-0.0483398-0.137207-0.1542969-0.2470703-0.2905273-0.2998047   l-2.5922852-1.0087891C15.9892578,12.3129883,16,12.1547852,16,12s-0.0107422-0.3129883-0.0322266-0.4765625l2.5922852-1.0087891   c0.1362305-0.0527344,0.2421875-0.1625977,0.2905273-0.2998047c0.0483398-0.1376953,0.0341797-0.2895508-0.0385742-0.4160156   l-1.5-2.5976562c-0.0732422-0.1264648-0.1977539-0.2143555-0.3408203-0.2412109   c-0.1435547-0.0268555-0.2915039,0.0102539-0.4052734,0.1010742l-2.1743164,1.7446289   c-0.2524414-0.1879883-0.5268555-0.3447266-0.8222656-0.4692383l0.4248047-2.7602539   c0.0224609-0.1445312-0.0195312-0.2910156-0.1147461-0.4018555C13.784668,5.0634766,13.6459961,5,13.5,5h-3   c-0.1459961,0-0.284668,0.0634766-0.3793945,0.1743164c-0.0952148,0.1108398-0.137207,0.2573242-0.1147461,0.4018555   l0.4248047,2.7602539c-0.2954102,0.1245117-0.5698242,0.28125-0.8222656,0.4692383L7.434082,7.0610352   C7.3208008,6.9702148,7.1733398,6.9331055,7.0288086,6.9599609C6.8857422,6.9868164,6.7612305,7.074707,6.6879883,7.2011719   l-1.5,2.5976562c-0.0727539,0.1264648-0.0869141,0.2783203-0.0385742,0.4160156   c0.0483398,0.137207,0.1542969,0.2470703,0.2905273,0.2998047l2.5922852,1.0087891C8.0107422,11.6870117,8,11.8452148,8,12   s0.0107422,0.3129883,0.0322266,0.4765625l-2.5922852,1.0087891c-0.1362305,0.0527344-0.2421875,0.1625977-0.2905273,0.2998047   c-0.0483398,0.1376953-0.0341797,0.2895508,0.0385742,0.4160156l1.5,2.5976562   c0.0732422,0.1264648,0.1977539,0.2143555,0.3408203,0.2412109c0.1445312,0.0283203,0.2919922-0.0092773,0.4052734-0.1010742   l2.1743164-1.7446289c0.2524414,0.1879883,0.5268555,0.3447266,0.8222656,0.4692383l-0.4248047,2.7602539   c-0.0224609,0.1445312,0.0195312,0.2910156,0.1147461,0.4018555C10.215332,18.9365234,10.3540039,19,10.5,19h3   c0.1459961,0,0.284668-0.0634766,0.3793945-0.1743164C13.9746094,18.7148438,14.0166016,18.5683594,13.9941406,18.4238281z" fill="#303C42"/><path d="M12.9169922,18h-1.8339844l0.3984375-2.590332   c0.0380859-0.2460938-0.1108398-0.4824219-0.3486328-0.5546875c-0.4516602-0.137207-0.847168-0.362793-1.1767578-0.6713867   c-0.1821289-0.1704102-0.4609375-0.1806641-0.6547852-0.0253906l-2.0385742,1.6357422l-0.9169922-1.5878906l2.4335938-0.9472656   c0.2314453-0.0898438,0.3618164-0.3364258,0.3061523-0.578125C9.027832,12.4316406,9,12.2094727,9,12   s0.027832-0.4316406,0.0854492-0.6806641c0.0556641-0.2416992-0.074707-0.4882812-0.3061523-0.578125L6.3457031,9.7939453   l0.9169922-1.5878906l2.0385742,1.6357422c0.1938477,0.1552734,0.4726562,0.1450195,0.6547852-0.0253906   c0.3295898-0.3085938,0.7250977-0.5341797,1.1767578-0.6713867c0.237793-0.0722656,0.3867188-0.3085938,0.3486328-0.5546875   L11.0830078,6h1.8339844l-0.3984375,2.590332c-0.0380859,0.2460938,0.1108398,0.4824219,0.3486328,0.5546875   c0.4516602,0.137207,0.847168,0.362793,1.1767578,0.6713867c0.1811523,0.1704102,0.4609375,0.1806641,0.6547852,0.0253906   l2.0385742-1.6357422l0.9169922,1.5878906l-2.4335938,0.9472656c-0.2314453,0.0898438-0.3618164,0.3364258-0.3061523,0.578125   C14.972168,11.5683594,15,11.7905273,15,12s-0.027832,0.4316406-0.0854492,0.6806641   c-0.0556641,0.2416992,0.074707,0.4882812,0.3061523,0.578125l2.4335938,0.9472656l-0.9169922,1.5878906l-2.0385742-1.6357422   c-0.1938477-0.1552734-0.4736328-0.1450195-0.6547852,0.0253906c-0.3295898,0.3085938-0.7250977,0.5341797-1.1767578,0.6713867   c-0.237793,0.0722656-0.3867188,0.3085938-0.3486328,0.5546875L12.9169922,18z" fill="#D75532"/><linearGradient gradientUnits="userSpaceOnUse" id="SVGID_1_" x1="1.1249185" x2="22.875082" y1="6.9288664" y2="17.0711346"><stop offset="0" style="stop-color:#FFFFFF;stop-opacity:0.2"/><stop offset="1" style="stop-color:#FFFFFF;stop-opacity:0"/></linearGradient><path d="M12,0C5.3833008,0,0,5.3833008,0,12s5.3833008,12,12,12s12-5.3833008,12-12S18.6166992,0,12,0z" fill="url(#SVGID_1_)"/></g><g/><g/><g/><g/><g/><g/><g/><g/><g/><g/><g/><g/><g/><g/><g/></svg>